<svg width="30" height="30" viewBox="0 0 30 30" fill="none" xmlns="http://www.w3.org/2000/svg">
<path d="M15.0337 16.9531C16.5702 16.9531 18.1067 16.9531 19.6298 16.9531C25.4285 16.9531 29.8242 20.9515 29.9846 26.3574C30.0113 27.2168 29.9979 28.0638 29.9846 28.9233C29.9712 29.4838 29.6773 29.8326 29.1562 29.9571C28.6618 30.0817 28.2476 29.9322 27.9804 29.5461C27.8335 29.3219 27.78 29.0229 27.7667 28.7489C27.7399 28.014 27.7666 27.2916 27.7533 26.5567C27.7132 22.1971 24.2794 19.0208 19.6031 19.0084C16.5167 19.0084 13.4303 19.0084 10.344 19.0084C6.24214 19.0208 2.99543 21.5494 2.3541 25.3111C2.18041 26.3574 2.27393 27.4535 2.24721 28.5247C2.24721 28.7364 2.24721 28.9607 2.20713 29.1724C2.1136 29.6457 1.64597 29.9945 1.13825 29.9945C0.643896 29.9945 0.202985 29.6706 0.0827368 29.2222C0.0693758 29.1973 0.0560153 29.16 0.0560153 29.135C-0.104316 26.183 -0.0508741 23.2807 2.03344 20.7771C4.0643 18.3357 6.72313 17.0154 10.0634 16.9531C11.7335 16.9158 13.3903 16.9531 15.0337 16.9531Z" fill="#222222"/>
<path d="M23.0233 7.39938C23.0767 11.4351 19.496 14.8356 15.1269 14.8854C10.7446 14.9352 7.08365 11.6095 7.04356 7.5364C6.99012 3.43839 10.5441 0.0503784 14.9265 0.000554634C19.3356 -0.0492691 22.9565 3.26401 23.0233 7.39938ZM15.0601 12.8302C18.2267 12.8177 20.8054 10.3888 20.8054 7.43675C20.8054 4.49715 18.1599 2.05579 15.0334 2.0807C11.8401 2.10561 9.27485 4.49715 9.27485 7.44921C9.26149 10.4137 11.8802 12.8426 15.0601 12.8302Z" fill="#222222"/>
</svg>
